HIERARCHY
ROOT Hips
{
	OFFSET	0.00	0.00	0.00
	CHANNELS 6 Xposition Yposition Zposition Zrotation Xrotation Yrotation
	JOINT LeftUpLeg
	{
		OFFSET	 0.126116	-0.014019	-0.065224
		CHANNELS 3 Zrotation Xrotation Yrotation
		JOINT LeftLeg
		{
			OFFSET	 0.000000	 0.000000	 0.569914
			CHANNELS 3 Zrotation Xrotation Yrotation
			JOINT LeftFoot
			{
				OFFSET	 0.000000	 0.000000	 0.544423
				CHANNELS 3 Zrotation Xrotation Yrotation
				JOINT LeftToeBase
				{
					OFFSET	 0.000000	 0.000000	 0.207117
					CHANNELS 3 Zrotation Xrotation Yrotation
					End Site
					{
						OFFSET	 0.000000	 0.000000	 0.207117
					}
				}
			}
		}
	}
	JOINT RightUpLeg
	{
		OFFSET	-0.124023	-0.008373	-0.065224
		CHANNELS 3 Zrotation Xrotation Yrotation
		JOINT RightLeg
		{
			OFFSET	 0.000000	 0.000000	 0.570047
			CHANNELS 3 Zrotation Xrotation Yrotation
			JOINT RightFoot
			{
				OFFSET	 0.000000	 0.000000	 0.544354
				CHANNELS 3 Zrotation Xrotation Yrotation
				JOINT RightToeBase
				{
					OFFSET	 0.000000	 0.000000	 0.207540
					CHANNELS 3 Zrotation Xrotation Yrotation
					End Site
					{
						OFFSET	 0.000000	 0.000000	 0.207540
					}
				}
			}
		}
	}
	JOINT Spine
	{
		OFFSET	 0.000184	-0.007763	 0.117403
		CHANNELS 3 Zrotation Xrotation Yrotation
		JOINT Spine1
		{
			OFFSET	 0.000000	 0.000000	 0.137269
			CHANNELS 3 Zrotation Xrotation Yrotation
			JOINT Spine2
			{
				OFFSET	 0.000000	 0.000000	 0.156879
				CHANNELS 3 Zrotation Xrotation Yrotation
				JOINT LeftShoulder
				{
					OFFSET	 0.080501	-0.002496	 0.160144
					CHANNELS 3 Zrotation Xrotation Yrotation
					JOINT LeftArm
					{
						OFFSET	 0.000000	 0.000000	 0.164363
						CHANNELS 3 Zrotation Xrotation Yrotation
						JOINT LeftForeArm
						{
							OFFSET	 0.000000	 0.000000	 0.364576
							CHANNELS 3 Zrotation Xrotation Yrotation
							JOINT LeftHand
							{
								OFFSET	 0.000000	 0.000000	 0.360812
								CHANNELS 3 Zrotation Xrotation Yrotation
								JOINT LeftHandIndex1
								{
									OFFSET	 0.000000	 0.000000	 0.086006
									CHANNELS 3 Zrotation Xrotation Yrotation
									JOINT LeftHandIndex2
									{
										OFFSET	 0.000000	 0.000000	 0.047236
										CHANNELS 3 Zrotation Xrotation Yrotation
										JOINT LeftHandIndex3
										{
											OFFSET	-0.004284	-0.000551	 0.038166
											CHANNELS 3 Zrotation Xrotation Yrotation
											End Site
											{
												OFFSET	-0.004284	-0.000551	 0.038166
											}
										}
									}
								}
							}
						}
					}
				}
				JOINT Neck
				{
					OFFSET	 0.000000	 0.000000	 0.176489
					CHANNELS 3 Zrotation Xrotation Yrotation
					JOINT Head
					{
						OFFSET	 0.000000	-0.001747	 0.077940
						CHANNELS 3 Zrotation Xrotation Yrotation
						End Site
						{
							OFFSET	 0.000000	-0.001747	 0.077940
						}
					}
				}
				JOINT RightShoulder
				{
					OFFSET	-0.080363	 0.000306	 0.159706
					CHANNELS 3 Zrotation Xrotation Yrotation
					JOINT RightArm
					{
						OFFSET	 0.000000	 0.000000	 0.164196
						CHANNELS 3 Zrotation Xrotation Yrotation
						JOINT RightForeArm
						{
							OFFSET	 0.000000	 0.000000	 0.365611
							CHANNELS 3 Zrotation Xrotation Yrotation
							JOINT RightHand
							{
								OFFSET	 0.000000	 0.000000	 0.360648
								CHANNELS 3 Zrotation Xrotation Yrotation
								JOINT RightHandIndex1
								{
									OFFSET	 0.000000	 0.000000	 0.069977
									CHANNELS 3 Zrotation Xrotation Yrotation
									JOINT RightHandIndex2
									{
										OFFSET	 0.000000	 0.000000	 0.052305
										CHANNELS 3 Zrotation Xrotation Yrotation
										JOINT RightHandIndex3
										{
											OFFSET	 0.009002	-0.000782	 0.042196
											CHANNELS 3 Zrotation Xrotation Yrotation
											End Site
											{
												OFFSET	 0.009002	-0.000782	 0.042196
											}
										}
									}
								}
							}
						}
					}
				}
			}
		}
	}
}
MOTION
Frames:    7
Frame Time: 0.03333334
-0.000405	 0.020060	 1.266432	 0.003771	 0.009094	-0.055724	-4.615994	-3.462217	 178.696600	 1.417749	-15.752100	-0.929776	-7.414237	 73.233630	 1.277278	-2.385833	 28.452760	 0.000004	 4.495285	-3.944226	-178.580200	-1.396533	-16.277310	 0.944790	 7.268956	 73.342190	-1.284056	 2.384658	 28.388730	 0.000004	 1.327917	 2.716644	-0.002642	 0.688854	 3.671859	 0.346244	-2.070616	-4.668533	-0.488777	-91.776180	 78.527450	 180.000000	 67.200610	 43.514280	-55.118650	-7.858957	 3.701867	-9.289501	-29.083180	 3.817199	-4.359449	-2.635965	 4.993658	 6.788941	-5.165319	 0.784187	 3.516649	-5.225038	 0.466231	 0.424329	-0.000002	-3.783157	-0.089647	-2.001046	 5.020217	 0.087716	 89.782100	 78.203870	 180.000000	-63.690070	 41.566900	 54.443450	 7.064122	 5.360301	 12.568150	 28.076870	 2.711611	 8.778294	 6.112037	 4.509576	-0.364401	 4.968462	 1.518543	-9.347576	 5.168945	 0.703820	 2.021906
-0.000409	 0.020327	 1.262456	 0.003777	 0.009072	-0.055680	-4.801433	-4.804235	 178.811500	 1.366328	-18.520400	-1.104242	-8.398966	 74.633150	 2.302980	-2.385833	 28.452760	 0.000004	 4.682614	-5.249642	-178.689800	-1.345813	-18.969910	 1.112257	 8.214261	 74.703510	-2.268384	 2.384658	 28.388730	 0.000004	 1.327804	 2.719342	-0.002740	 0.688701	 3.662580	 0.346263	-2.070227	-4.656706	-0.488386	-91.776160	 78.527430	 180.000000	 67.147880	 43.540700	-55.054980	-7.842673	 3.715783	-9.324903	-29.083220	 3.817181	-4.359456	-2.635965	 4.993658	 6.788941	-5.165319	 0.784187	 3.516649	-5.225038	 0.466231	 0.424329	-0.000002	-3.783157	-0.089647	-2.000901	 5.025778	 0.087807	 89.782160	 78.203870	 179.999900	-63.704040	 40.960650	 55.085500	 6.285877	 5.127922	 12.500650	 28.271900	 2.133896	 8.434186	 6.112037	 4.509576	-0.364401	 4.968462	 1.518543	-9.347576	 5.168945	 0.703820	 2.021906
-0.000413	 0.020639	 1.257845	 0.003796	 0.009056	-0.055624	-5.010458	-6.153188	 178.927000	 1.304546	-21.305650	-1.285589	-9.596927	 76.037100	 3.542613	-2.385833	 28.452760	 0.000004	 4.893947	-6.571371	-178.800900	-1.284870	-21.698470	 1.287585	 9.368306	 76.079120	-3.462377	 2.384658	 28.388730	 0.000004	 1.327531	 2.722486	-0.002849	 0.688447	 3.651801	 0.346343	-2.069566	-4.642964	-0.487925	-91.776150	 78.527450	 180.000000	 67.054890	 43.580440	-54.943870	-7.817677	 3.731333	-9.364390	-29.083160	 3.817199	-4.359443	-2.635965	 4.993658	 6.788941	-5.165319	 0.784187	 3.516649	-5.225038	 0.466231	 0.424329	-0.000002	-3.783157	-0.089647	-2.000502	 5.032252	 0.087902	 89.782150	 78.203850	 180.000000	-63.517030	 40.115100	 56.356350	 5.102980	 4.619524	 11.986790	 28.531940	 1.360710	 7.974015	 6.112037	 4.509576	-0.364401	 4.968462	 1.518543	-9.347576	 5.168945	 0.703820	 2.021906
-0.000415	 0.021016	 1.252378	 0.003802	 0.009034	-0.055522	-5.253489	-7.564923	 179.048000	 1.228084	-24.223540	-1.483131	-11.150290	 77.501420	 5.140121	-2.385833	 28.452760	 0.000004	 5.139671	-7.961499	-178.917900	-1.209436	-24.570880	 1.479521	 10.867220	 77.520950	-5.003890	 2.384658	 28.388730	 0.000004	 1.327019	 2.726246	-0.002977	 0.688058	 3.638871	 0.346311	-2.068492	-4.626489	-0.487275	-91.776180	 78.527470	 180.000000	 66.881740	 43.628940	-54.728710	-7.780101	 3.749768	-9.411161	-29.083180	 3.817175	-4.359463	-2.635965	 4.993658	 6.788941	-5.165319	 0.784187	 3.516649	-5.225038	 0.466231	 0.424329	-0.000002	-3.783157	-0.089647	-1.999776	 5.040052	 0.088007	 89.782120	 78.203850	 180.000000	-62.482800	 38.559960	 57.895180	 2.785270	 4.178154	 12.314900	 28.097910	 0.205978	 6.927255	 6.112037	 4.509576	-0.364401	 4.968462	 1.518543	-9.347576	 5.168945	 0.703820	 2.021906
-0.000416	 0.021378	 1.247334	 0.003813	 0.009013	-0.055500	-5.474036	-8.736934	 179.148800	 1.154554	-26.648300	-1.654285	-12.755920	 78.710900	 6.782898	-2.385833	 28.452760	 0.000004	 5.362659	-9.119253	-179.015400	-1.136896	-26.965300	 1.646348	 12.417370	 78.715800	-6.589996	 2.384658	 28.388730	 0.000004	 1.326355	 2.729731	-0.003041	 0.687595	 3.626882	 0.346335	-2.067211	-4.611222	-0.486639	-91.776270	 78.527450	-179.999900	 66.645070	 43.661980	-54.406440	-7.857427	 3.768985	-9.460084	-28.968100	 3.832418	-4.340714	-2.635965	 4.993658	 6.788941	-5.165319	 0.784187	 3.516649	-5.225038	 0.466231	 0.424329	-0.000002	-3.783157	-0.089647	-1.998806	 5.047279	 0.088090	 89.782130	 78.203900	 180.000000	-59.815680	 36.281500	 58.501190	-0.420652	 4.323232	 15.456310	 26.946150	-0.989762	 5.388093	 6.112037	 4.509576	-0.364401	 4.968462	 1.518543	-9.347576	 5.168945	 0.703820	 2.021906
-0.000417	 0.021697	 1.243101	 0.003826	 0.008997	-0.055361	-5.657824	-9.650720	 179.227500	 1.090313	-28.540430	-1.792955	-14.275240	 79.647970	 8.331508	-2.385833	 28.452760	 0.000004	 5.548392	-10.023680	-179.091900	-1.073515	-28.837180	 1.781776	 13.883810	 79.643690	-8.084862	 2.384658	 28.388730	 0.000004	 1.325653	 2.732669	-0.003144	 0.687138	 3.616788	 0.346198	-2.065913	-4.598361	-0.486004	-91.776240	 78.527490	-180.000000	 66.362760	 43.666030	-54.024330	-7.855489	 3.780495	-9.489329	-28.933150	 3.837062	-4.335002	-2.635965	 4.993658	 6.788941	-5.165319	 0.784187	 3.516649	-5.225038	 0.466231	 0.424329	-0.000002	-3.783157	-0.089647	-1.997773	 5.053352	 0.088151	 89.782100	 78.203900	 180.000000	-56.650860	 33.966070	 61.501590	-3.176053	 3.463596	 15.250220	 25.537970	-1.792086	 3.908344	 6.112037	 4.509576	-0.364401	 4.968462	 1.518543	-9.347576	 5.168945	 0.703820	 2.021906
-0.000415	 0.022116	 1.237352	 0.003831	 0.008977	-0.055253	-5.894482	-10.758680	 179.323200	 1.003538	-30.836490	-1.968117	-16.540340	 80.774100	 10.632550	-2.385833	 28.452760	 0.000004	 5.787560	-11.122010	-179.184900	-0.987896	-31.112080	 1.953109	 16.069230	 80.760940	-10.305210	 2.384658	 28.388730	 0.000004	 1.324551	 2.736498	-0.003224	 0.686447	 3.603613	 0.346041	-2.063919	-4.581597	-0.485134	-91.776180	 78.527450	 180.000000	 65.852120	 43.617240	-53.302110	-7.852139	 3.800333	-9.539845	-28.883560	 3.843619	-4.326928	-2.635965	 4.993658	 6.788941	-5.165319	 0.784187	 3.516649	-5.225038	 0.466231	 0.424329	-0.000002	-3.783157	-0.089647	-1.996162	 5.061352	 0.088220	 89.782100	 78.203850	 180.000000	-50.365440	 29.958350	 65.646260	-7.085254	 2.505595	 16.149520	 22.948110	-2.399836	 1.760199	 6.112037	 4.509576	-0.364401	 4.968462	 1.518543	-9.347576	 5.168945	 0.703820	 2.021906
